<?xml version="1.0" standalone="no"?>
<!DOCTYPE svg PUBLIC "-//W3C//DTD SVG 20010904//EN"
 "http://www.w3.org/TR/2001/REC-SVG-20010904/DTD/svg10.dtd">
<svg version="1.0" xmlns="http://www.w3.org/2000/svg"
 width="1024.000000pt" height="1024.000000pt" viewBox="0 0 1024.000000 1024.000000"
 preserveAspectRatio="xMidYMid meet">

<g transform="translate(0.000000,1024.000000) scale(0.100000,-0.100000)"
fill="#000000" stroke="none">
<path d="M2842 5248 l3 -913 65 0 c36 0 111 2 168 3 l102 2 0 40 c0 38 12 52
25 30 12 -19 105 -60 172 -76 201 -47 460 15 585 141 126 127 198 369 185 615
-19 337 -171 550 -432 605 -190 40 -383 -3 -490 -111 -19 -18 -37 -34 -40 -34
-3 0 -5 137 -5 305 l0 305 -170 0 -170 0 2 -912z m769 159 c85 -42 147 -140
170 -269 10 -56 10 -94 1 -177 -10 -93 -17 -117 -54 -191 -51 -101 -99 -143
-184 -160 -61 -13 -155 -6 -216 16 -39 13 -127 69 -140 88 -4 6 -8 137 -8 290
l0 279 40 39 c44 41 100 73 165 94 55 18 180 13 226 -9z"/>
<path d="M1607 6048 c-76 -222 -362 -1041 -476 -1362 -67 -187 -121 -341 -121
-343 0 -2 78 -3 173 -3 l172 0 57 163 c31 89 66 184 77 210 l20 47 340 0 340
0 30 -80 c17 -44 50 -138 74 -210 l42 -130 183 0 183 0 -7 23 c-6 22 -89 254
-341 962 -74 209 -170 478 -212 597 -60 172 -80 218 -96 222 -11 3 -106 6
-212 6 l-191 0 -35 -102z m347 -593 c59 -165 115 -323 125 -352 l18 -51 -131
-7 c-146 -8 -351 -4 -361 7 -8 7 67 239 167 518 32 91 61 171 64 179 2 8 6 12
9 10 2 -2 51 -139 109 -304z"/>
<path d="M6390 5699 c-72 -12 -185 -67 -234 -113 -21 -20 -40 -36 -42 -36 -2
0 -4 27 -4 59 0 33 -4 61 -10 63 -5 2 -79 2 -163 0 l-154 -3 -7 -106 c-8 -136
-8 -1631 0 -1700 l7 -53 163 0 164 0 6 26 c4 14 5 149 2 300 -2 151 -3 274 0
274 2 0 23 -11 46 -25 110 -65 327 -86 461 -44 184 55 339 200 401 370 45 128
59 394 28 547 -42 208 -182 369 -371 428 -61 18 -221 26 -293 13z m149 -295
c118 -49 189 -211 178 -405 -12 -194 -86 -324 -217 -381 -71 -31 -197 -22
-283 20 -114 56 -110 44 -105 348 4 245 6 263 26 295 73 118 270 178 401 123z"/>
<path d="M4729 5670 c-58 -10 -153 -34 -210 -52 l-104 -34 -3 -138 c-2 -129
-1 -138 15 -133 10 3 56 20 103 37 163 61 352 84 470 59 61 -13 126 -60 151
-109 10 -19 21 -58 25 -86 l6 -52 -213 -4 c-236 -6 -339 -23 -447 -76 -71 -33
-160 -121 -192 -187 -21 -44 -24 -64 -25 -170 0 -114 2 -123 31 -186 37 -78
90 -140 149 -175 63 -36 185 -64 284 -64 178 0 308 58 393 174 l28 39 1 -29
c1 -16 0 -55 -1 -86 l-2 -58 161 0 161 0 0 458 c0 496 -3 526 -57 640 -51 109
-158 193 -287 226 -100 26 -313 29 -437 6z m445 -762 c29 -109 -45 -242 -169
-306 -71 -36 -184 -42 -248 -14 -107 47 -128 185 -41 262 69 60 143 78 315 79
134 1 137 0 143 -21z"/>
</g>
</svg>
